<svg  viewBox="0 0 51 49" fill="none" xmlns="http://www.w3.org/2000/svg">
<path d="M25.9347 0.237305C12.1222 0.237305 0.934692 11.4311 0.934692 25.2373C0.934692 36.2852 8.09719 45.654 18.0284 48.956C19.2784 49.1915 19.7368 48.4186 19.7368 47.754C19.7368 47.1602 19.7159 45.5873 19.7055 43.504C12.7514 45.0123 11.2847 40.1498 11.2847 40.1498C10.1472 37.2644 8.50344 36.4936 8.50344 36.4936C6.23886 34.9436 8.67844 34.9748 8.67844 34.9748C11.1889 35.1498 12.5076 37.5498 12.5076 37.5498C14.7368 41.3727 18.3597 40.2686 19.7889 39.629C20.0139 38.0123 20.6576 36.9102 21.3722 36.2852C15.8201 35.6602 9.98469 33.5102 9.98469 23.9311C9.98469 21.2019 10.9534 18.9727 12.5576 17.2227C12.2764 16.5915 11.4326 14.0498 12.7764 10.6061C12.7764 10.6061 14.8701 9.93522 19.6514 13.1686C21.6514 12.6123 23.7764 12.3373 25.9014 12.3248C28.0264 12.3373 30.1514 12.6123 32.1514 13.1686C36.9014 9.93522 38.9951 10.6061 38.9951 10.6061C40.3389 14.0498 39.4951 16.5915 39.2451 17.2227C40.8389 18.9727 41.8076 21.2019 41.8076 23.9311C41.8076 33.5352 35.9639 35.6498 30.4014 36.2644C31.2764 37.0144 32.0889 38.5477 32.0889 40.8894C32.0889 44.2352 32.0576 46.9227 32.0576 47.7352C32.0576 48.3915 32.4951 49.1727 33.7764 48.9227C43.7784 45.6436 50.9347 36.2686 50.9347 25.2373C50.9347 11.4311 39.7409 0.237305 25.9347 0.237305Z" fill="white"/>
</svg>
