<svg viewBox="0 0 20 33" fill="none" xmlns="http://www.w3.org/2000/svg">
<path d="M20 9.12663C20 6.32526 18.1354 4.05628 15.8333 4.05628C13.5312 4.05628 11.6667 6.32526 11.6667 9.12663C11.6667 11.4336 12.9323 13.3794 14.6615 13.9942C14.6302 15.0146 14.4427 15.8005 14.0885 16.3329C13.2865 17.5498 11.5208 17.7526 9.65104 17.9617C8.18229 18.1265 6.66146 18.304 5.41667 19.0328V9.9062C7.10938 9.25973 8.33333 7.33934 8.33333 5.07035C8.33333 2.26898 6.46875 0 4.16667 0C1.86458 0 0 2.26898 0 5.07035C0 7.33934 1.22396 9.25973 2.91667 9.9062V22.5377C1.22396 23.1905 0 25.1109 0 27.3799C0 30.1813 1.86458 32.4503 4.16667 32.4503C6.46875 32.4503 8.33333 30.1813 8.33333 27.3799C8.33333 25.225 7.22917 23.3807 5.66667 22.6518C5.82812 22.3222 6.07292 22.0307 6.44271 21.8025C7.28646 21.2828 8.54688 21.1434 9.88542 20.9913C12.0833 20.7441 14.5729 20.4589 16.0417 18.2406C16.7708 17.1378 17.1406 15.7181 17.1667 13.9371C18.8125 13.2526 20 11.3576 20 9.12663ZM4.16667 4.05628C4.625 4.05628 5 4.51261 5 5.07035C5 5.62809 4.625 6.08442 4.16667 6.08442C3.70833 6.08442 3.33333 5.62809 3.33333 5.07035C3.33333 4.51261 3.70833 4.05628 4.16667 4.05628ZM4.16667 28.394C3.70833 28.394 3.33333 27.9376 3.33333 27.3799C3.33333 26.8222 3.70833 26.3658 4.16667 26.3658C4.625 26.3658 5 26.8222 5 27.3799C5 27.9376 4.625 28.394 4.16667 28.394ZM15.8333 8.11256C16.2917 8.11256 16.6667 8.5689 16.6667 9.12663C16.6667 9.68437 16.2917 10.1407 15.8333 10.1407C15.375 10.1407 15 9.68437 15 9.12663C15 8.5689 15.375 8.11256 15.8333 8.11256Z" fill="white"/>
</svg>
